<?xml version="1.0" encoding="UTF-8" standalone="no"?>
<svg width="145px" height="106px" viewBox="0 0 145 106" version="1.1" xmlns="http://www.w3.org/2000/svg" xmlns:xlink="http://www.w3.org/1999/xlink">
    <!-- Generator: Sketch 3.7.2 (28276) - http://www.bohemiancoding.com/sketch -->
    <title>Weather-cloud-sun</title>
    <desc>Created with Sketch.</desc>
    <defs></defs>
    <g id="Page-1" stroke="none" stroke-width="1" fill="none" fill-rule="evenodd">
        <g id="Desktop" transform="translate(-439.000000, -100.000000)" stroke="#666666" stroke-width="2">
            <g id="Weather-cloud-sun" transform="translate(440.000000, 100.000000)">
                <path d="M31.3142857,43.1413043 C37.9428571,31.0434783 50.9714286,22.826087 65.8285714,22.826087 C87.5428571,22.826087 105.142857,40.173913 105.142857,61.8586957 C105.142857,64.826087 104.685714,67.7934783 104.228571,70.5326087" id="Shape"></path>
                <path d="M106.057143,55.923913 C108.571429,55.0108696 111.314286,54.7826087 114.057143,54.7826087 C128,54.7826087 139.428571,65.9673913 139.428571,79.8913043 C139.428571,93.8152174 128,105 114.057143,105 L28.8,105 C11.6571429,105 0,91.076087 0,74.1847826 C0,57.0652174 11.6571429,43.3695652 28.8,43.3695652 C36.8,43.3695652 44.1142857,46.3369565 49.6,51.1304348" id="Shape"></path>
                <path d="M82.7428571,25.1086957 C87.3142857,19.6304348 94.4,15.9782609 102.171429,15.9782609 C116.114286,15.9782609 127.314286,27.1630435 127.314286,41.0869565 C127.314286,46.1086957 125.714286,50.9021739 123.2,54.7826087" id="Shape"></path>
                <path d="M102.857143,0 L102.857143,9.13043478" id="Shape"></path>
                <path d="M73.1428571,12.0978261 L79.5428571,18.4891304" id="Shape"></path>
                <path d="M144,41.0869565 L133.028571,41.0869565" id="Shape"></path>
                <path d="M131.428571,12.0978261 L124.8,18.4891304" id="Shape"></path>
            </g>
        </g>
    </g>
</svg>