<?xml version="1.0" encoding="UTF-8" standalone="no"?>
<svg width="707px" height="76px" viewBox="0 0 707 76" version="1.1" xmlns="http://www.w3.org/2000/svg" xmlns:xlink="http://www.w3.org/1999/xlink">
    <!-- Generator: Sketch 3.7.2 (28276) - http://www.bohemiancoding.com/sketch -->
    <title>Your weather today</title>
    <desc>Created with Sketch.</desc>
    <defs></defs>
    <g id="Page-1" stroke="none" stroke-width="1" fill="none" fill-rule="evenodd" fill-opacity="0.0199999996">
        <g id="Desktop" transform="translate(-317.000000, 0.000000)" fill="#000000">
            <path d="M331.696,35.272 L331.696,60 L348.064,60 L348.064,35.272 L364.08,-2.832 L346.128,-2.832 L339.968,19.08 L339.792,19.08 L333.632,-2.832 L315.944,-2.832 L331.696,35.272 Z M374.2,36.24 C374.2,33.247985 374.258666,30.7840097 374.376,28.848 C374.493334,26.9119903 374.727998,25.3866722 375.08,24.272 C375.432002,23.1573278 375.886664,22.3946687 376.444,21.984 C377.001336,21.5733313 377.719996,21.368 378.6,21.368 C379.480004,21.368 380.21333,21.5733313 380.8,21.984 C381.38667,22.3946687 381.841332,23.1573278 382.164,24.272 C382.486668,25.3866722 382.706666,26.9119903 382.824,28.848 C382.941334,30.7840097 383,33.247985 383,36.24 C383,39.232015 382.941334,41.6813238 382.824,43.588 C382.706666,45.4946762 382.486668,47.0053278 382.164,48.12 C381.841332,49.2346722 381.38667,49.9973313 380.8,50.408 C380.21333,50.8186687 379.480004,51.024 378.6,51.024 C377.719996,51.024 377.001336,50.8186687 376.444,50.408 C375.886664,49.9973313 375.432002,49.2346722 375.08,48.12 C374.727998,47.0053278 374.493334,45.4946762 374.376,43.588 C374.258666,41.6813238 374.2,39.232015 374.2,36.24 L374.2,36.24 Z M398.84,36.24 C398.84,32.7786494 398.649335,29.5373484 398.268,26.516 C397.886665,23.4946516 397.02134,20.8400114 395.672,18.552 C394.32266,16.2639886 392.29868,14.4600066 389.6,13.14 C386.90132,11.8199934 383.23469,11.16 378.6,11.16 C374.141311,11.16 370.577347,11.8786595 367.908,13.316 C365.238653,14.7533405 363.200007,16.6453216 361.792,18.992 C360.383993,21.3386784 359.460002,24.007985 359.02,27 C358.579998,29.992015 358.36,33.0426511 358.36,36.152 C358.36,39.6133506 358.550665,42.8546516 358.932,45.876 C359.313335,48.8973484 360.17866,51.537322 361.528,53.796 C362.87734,56.054678 364.90132,57.8146604 367.6,59.076 C370.29868,60.3373396 373.96531,60.968 378.6,60.968 C383.058689,60.968 386.622653,60.2786736 389.292,58.9 C391.961347,57.5213264 393.999993,55.6733449 395.408,53.356 C396.816007,51.0386551 397.739998,48.384015 398.18,45.392 C398.620002,42.399985 398.84,39.3493489 398.84,36.24 L398.84,36.24 Z M403.768,12.392 L403.768,48.296 C403.768,50.8186793 404.090663,52.9159916 404.736,54.588 C405.381337,56.2600084 406.261328,57.5799952 407.376,58.548 C408.490672,59.5160048 409.795993,60.1613317 411.292,60.484 C412.788007,60.8066683 414.415991,60.968 416.176,60.968 C421.866695,60.968 425.709323,58.7093559 427.704,54.192 L427.88,54.192 L427.88,60 L443.192,60 L443.192,12.392 L427.352,12.392 L427.352,43.808 C427.352,45.8026766 427.05867,47.2399956 426.472,48.12 C425.88533,49.0000044 424.888007,49.44 423.48,49.44 C422.071993,49.44 421.07467,49.0000044 420.488,48.12 C419.90133,47.2399956 419.608,45.8026766 419.608,43.808 L419.608,12.392 L403.768,12.392 Z M449.088,12.392 L449.088,60 L464.928,60 L464.928,34.04 C464.928,30.8719842 465.705326,28.6720062 467.26,27.44 C468.814674,26.2079938 470.999986,25.592 473.816,25.592 C474.461337,25.592 475.106663,25.621333 475.752,25.68 C476.397337,25.738667 477.071996,25.8266661 477.776,25.944 L477.776,11.16 L475.224,11.16 C472.877322,11.16 470.73601,11.9079925 468.8,13.404 C466.86399,14.9000075 465.456004,17.085319 464.576,19.96 L464.4,19.96 L464.4,12.392 L449.088,12.392 Z M500.216,12.392 L509.896,60 L527.848,60 L532.688,26.296 L532.864,26.296 L537.704,60 L555.656,60 L565.336,12.392 L550.024,12.392 L546.064,46.624 L545.888,46.624 L541.224,12.392 L524.328,12.392 L519.664,46.624 L519.488,46.624 L515.528,12.392 L500.216,12.392 Z M591.648,28.144 L591.648,30.256 L582.936,30.256 L582.936,28.144 C582.936,25.6213207 583.243997,23.7733392 583.86,22.6 C584.476003,21.4266608 585.605325,20.84 587.248,20.84 C588.949342,20.84 590.107997,21.4266608 590.724,22.6 C591.340003,23.7733392 591.648,25.6213207 591.648,28.144 L591.648,28.144 Z M582.936,38.88 L606.432,38.88 L606.432,34.04 C606.432,29.698645 606.036004,26.0760145 605.244,23.172 C604.451996,20.2679855 603.249341,17.9213423 601.636,16.132 C600.022659,14.3426577 598.028012,13.0666705 595.652,12.304 C593.275988,11.5413295 590.504016,11.16 587.336,11.16 C583.757315,11.16 580.692013,11.6146621 578.14,12.524 C575.587987,13.4333379 573.490675,14.8853234 571.848,16.88 C570.205325,18.8746766 569.00267,21.4559842 568.24,24.624 C567.47733,27.7920158 567.096,31.6639771 567.096,36.24 C567.096,40.7573559 567.43333,44.5999842 568.108,47.768 C568.78267,50.9360158 569.911992,53.5026568 571.496,55.468 C573.080008,57.4333432 575.162654,58.8413291 577.744,59.692 C580.325346,60.5426709 583.522648,60.968 587.336,60.968 C593.9067,60.968 598.629319,59.4866815 601.504,56.524 C604.378681,53.5613185 605.874666,49.146696 605.992,43.28 L591.736,43.28 C591.736,46.5066828 591.340004,48.6919943 590.548,49.836 C589.755996,50.9800057 588.656007,51.552 587.248,51.552 C586.133328,51.552 585.136004,51.1266709 584.256,50.276 C583.375996,49.4253291 582.936,47.7093462 582.936,45.128 L582.936,38.88 Z M628.08,50.584 C626.906661,50.584 625.968004,50.1146714 625.264,49.176 C624.559996,48.2373286 624.208,46.9760079 624.208,45.392 C624.208,43.8079921 624.442664,42.5320048 624.912,41.564 C625.381336,40.5959952 626.231994,39.8186696 627.464,39.232 C628.637339,38.7039974 629.707995,38.3666674 630.676,38.22 C631.644005,38.0733326 632.362664,37.6773366 632.832,37.032 L633.008,37.032 L633.008,42.752 C633.008,45.3920132 632.62667,47.3573269 631.864,48.648 C631.10133,49.9386731 629.840009,50.584 628.08,50.584 L628.08,50.584 Z M633.976,60 L649.288,60 C648.642663,58.7679938 648.232001,57.3013418 648.056,55.6 C647.879999,53.8986582 647.792,51.9333445 647.792,49.704 L647.792,26.472 C647.792,23.3626511 647.337338,20.8253432 646.428,18.86 C645.518662,16.8946568 644.228008,15.3400057 642.556,14.196 C640.883992,13.0519943 638.889345,12.2600022 636.572,11.82 C634.254655,11.3799978 631.717347,11.16 628.96,11.16 C627.141324,11.16 625.176011,11.3506648 623.064,11.732 C620.951989,12.1133352 618.986676,12.8759943 617.168,14.02 C615.349324,15.1640057 613.824006,16.7773229 612.592,18.86 C611.359994,20.9426771 610.744,23.7146494 610.744,27.176 L624.472,27.176 C624.530667,24.6533207 624.911996,22.9666709 625.616,22.116 C626.320004,21.2653291 627.434659,20.84 628.96,20.84 C631.65868,20.84 633.008,22.306652 633.008,25.24 C633.008,26.706674 632.656004,27.835996 631.952,28.628 C631.247996,29.420004 630.045342,30.0213313 628.344,30.432 L622.096,31.928 C619.573321,32.5146696 617.461342,33.2333291 615.76,34.084 C614.058658,34.9346709 612.709338,35.9613273 611.712,37.164 C610.714662,38.3666727 609.996002,39.7893251 609.556,41.432 C609.115998,43.0746749 608.896,45.0106555 608.896,47.24 C608.896,49.2933436 609.130664,51.1706582 609.6,52.872 C610.069336,54.5733418 610.831995,56.0399938 611.888,57.272 C612.944005,58.5040062 614.307992,59.4279969 615.98,60.044 C617.652008,60.6600031 619.690655,60.968 622.096,60.968 C624.560012,60.968 626.745324,60.4400053 628.652,59.384 C630.558676,58.3279947 631.951996,56.7440106 632.832,54.632 L633.008,54.632 C633.125334,55.6293383 633.242666,56.5679956 633.36,57.448 C633.477334,58.3280044 633.682665,59.1786626 633.976,60 L633.976,60 Z M651.84,12.392 L651.84,23.04 L657.12,23.04 L657.12,48.384 C657.12,51.0240132 657.369331,53.1506586 657.868,54.764 C658.366669,56.3773414 659.158661,57.5946626 660.244,58.416 C661.329339,59.2373374 662.722658,59.7506656 664.424,59.956 C666.125342,60.1613344 668.178655,60.264 670.584,60.264 C671.93334,60.264 673.341326,60.2200004 674.808,60.132 C676.274674,60.0439996 677.741326,60 679.208,60 L679.208,49.44 L676.744,49.44 C675.453327,49.44 674.500003,49.1613361 673.884,48.604 C673.267997,48.0466639 672.96,47.0933401 672.96,45.744 L672.96,23.04 L679.208,23.04 L679.208,12.392 L672.96,12.392 L672.96,-1.6 L657.12,-1.6 L657.12,12.392 L651.84,12.392 Z M682.552,-2.832 L682.552,60 L698.392,60 L698.392,28.584 C698.392,26.5893234 698.68533,25.1520044 699.272,24.272 C699.85867,23.3919956 700.855993,22.952 702.264,22.952 C703.672007,22.952 704.66933,23.3919956 705.256,24.272 C705.84267,25.1520044 706.136,26.5893234 706.136,28.584 L706.136,60 L721.976,60 L721.976,24.096 C721.976,21.6319877 721.63867,19.5640084 720.964,17.892 C720.28933,16.2199916 719.380006,14.8853383 718.236,13.888 C717.091994,12.8906617 715.772007,12.1866687 714.276,11.776 C712.779993,11.3653313 711.210675,11.16 709.568,11.16 C707.63199,11.16 705.65201,11.6146621 703.628,12.524 C701.60399,13.4333379 699.91734,15.1493207 698.568,17.672 L698.392,17.672 L698.392,-2.832 L682.552,-2.832 Z M751.456,28.144 L751.456,30.256 L742.744,30.256 L742.744,28.144 C742.744,25.6213207 743.051997,23.7733392 743.668,22.6 C744.284003,21.4266608 745.413325,20.84 747.056,20.84 C748.757342,20.84 749.915997,21.4266608 750.532,22.6 C751.148003,23.7733392 751.456,25.6213207 751.456,28.144 L751.456,28.144 Z M742.744,38.88 L766.24,38.88 L766.24,34.04 C766.24,29.698645 765.844004,26.0760145 765.052,23.172 C764.259996,20.2679855 763.057341,17.9213423 761.444,16.132 C759.830659,14.3426577 757.836012,13.0666705 755.46,12.304 C753.083988,11.5413295 750.312016,11.16 747.144,11.16 C743.565315,11.16 740.500013,11.6146621 737.948,12.524 C735.395987,13.4333379 733.298675,14.8853234 731.656,16.88 C730.013325,18.8746766 728.81067,21.4559842 728.048,24.624 C727.28533,27.7920158 726.904,31.6639771 726.904,36.24 C726.904,40.7573559 727.24133,44.5999842 727.916,47.768 C728.59067,50.9360158 729.719992,53.5026568 731.304,55.468 C732.888008,57.4333432 734.970654,58.8413291 737.552,59.692 C740.133346,60.5426709 743.330648,60.968 747.144,60.968 C753.7147,60.968 758.437319,59.4866815 761.312,56.524 C764.186681,53.5613185 765.682666,49.146696 765.8,43.28 L751.544,43.28 C751.544,46.5066828 751.148004,48.6919943 750.356,49.836 C749.563996,50.9800057 748.464007,51.552 747.056,51.552 C745.941328,51.552 744.944004,51.1266709 744.064,50.276 C743.183996,49.4253291 742.744,47.7093462 742.744,45.128 L742.744,38.88 Z M770.2,12.392 L770.2,60 L786.04,60 L786.04,34.04 C786.04,30.8719842 786.817326,28.6720062 788.372,27.44 C789.926674,26.2079938 792.111986,25.592 794.928,25.592 C795.573337,25.592 796.218663,25.621333 796.864,25.68 C797.509337,25.738667 798.183996,25.8266661 798.888,25.944 L798.888,11.16 L796.336,11.16 C793.989322,11.16 791.84801,11.9079925 789.912,13.404 C787.97599,14.9000075 786.568004,17.085319 785.688,19.96 L785.512,19.96 L785.512,12.392 L770.2,12.392 Z M821.504,12.392 L821.504,23.04 L826.784,23.04 L826.784,48.384 C826.784,51.0240132 827.033331,53.1506586 827.532,54.764 C828.030669,56.3773414 828.822661,57.5946626 829.908,58.416 C830.993339,59.2373374 832.386658,59.7506656 834.088,59.956 C835.789342,60.1613344 837.842655,60.264 840.248,60.264 C841.59734,60.264 843.005326,60.2200004 844.472,60.132 C845.938674,60.0439996 847.405326,60 848.872,60 L848.872,49.44 L846.408,49.44 C845.117327,49.44 844.164003,49.1613361 843.548,48.604 C842.931997,48.0466639 842.624,47.0933401 842.624,45.744 L842.624,23.04 L848.872,23.04 L848.872,12.392 L842.624,12.392 L842.624,-1.6 L826.784,-1.6 L826.784,12.392 L821.504,12.392 Z M866.648,36.24 C866.648,33.247985 866.706666,30.7840097 866.824,28.848 C866.941334,26.9119903 867.175998,25.3866722 867.528,24.272 C867.880002,23.1573278 868.334664,22.3946687 868.892,21.984 C869.449336,21.5733313 870.167996,21.368 871.048,21.368 C871.928004,21.368 872.66133,21.5733313 873.248,21.984 C873.83467,22.3946687 874.289332,23.1573278 874.612,24.272 C874.934668,25.3866722 875.154666,26.9119903 875.272,28.848 C875.389334,30.7840097 875.448,33.247985 875.448,36.24 C875.448,39.232015 875.389334,41.6813238 875.272,43.588 C875.154666,45.4946762 874.934668,47.0053278 874.612,48.12 C874.289332,49.2346722 873.83467,49.9973313 873.248,50.408 C872.66133,50.8186687 871.928004,51.024 871.048,51.024 C870.167996,51.024 869.449336,50.8186687 868.892,50.408 C868.334664,49.9973313 867.880002,49.2346722 867.528,48.12 C867.175998,47.0053278 866.941334,45.4946762 866.824,43.588 C866.706666,41.6813238 866.648,39.232015 866.648,36.24 L866.648,36.24 Z M891.288,36.24 C891.288,32.7786494 891.097335,29.5373484 890.716,26.516 C890.334665,23.4946516 889.46934,20.8400114 888.12,18.552 C886.77066,16.2639886 884.74668,14.4600066 882.048,13.14 C879.34932,11.8199934 875.68269,11.16 871.048,11.16 C866.589311,11.16 863.025347,11.8786595 860.356,13.316 C857.686653,14.7533405 855.648007,16.6453216 854.24,18.992 C852.831993,21.3386784 851.908002,24.007985 851.468,27 C851.027998,29.992015 850.808,33.0426511 850.808,36.152 C850.808,39.6133506 850.998665,42.8546516 851.38,45.876 C851.761335,48.8973484 852.62666,51.537322 853.976,53.796 C855.32534,56.054678 857.34932,57.8146604 860.048,59.076 C862.74668,60.3373396 866.41331,60.968 871.048,60.968 C875.506689,60.968 879.070653,60.2786736 881.74,58.9 C884.409347,57.5213264 886.447993,55.6733449 887.856,53.356 C889.264007,51.0386551 890.187998,48.384015 890.628,45.392 C891.068002,42.399985 891.288,39.3493489 891.288,36.24 L891.288,36.24 Z M910.648,36.24 C910.648,33.6586538 910.706666,31.5173418 910.824,29.816 C910.941334,28.1146582 911.161332,26.7506718 911.484,25.724 C911.806668,24.6973282 912.26133,23.9786687 912.848,23.568 C913.43467,23.1573313 914.197329,22.952 915.136,22.952 C916.016004,22.952 916.74933,23.1573313 917.336,23.568 C917.92267,23.9786687 918.377332,24.6973282 918.7,25.724 C919.022668,26.7506718 919.242666,28.1146582 919.36,29.816 C919.477334,31.5173418 919.536,33.6586538 919.536,36.24 C919.536,38.7626793 919.477334,40.8746582 919.36,42.576 C919.242666,44.2773418 919.022668,45.6413282 918.7,46.668 C918.377332,47.6946718 917.92267,48.4133313 917.336,48.824 C916.74933,49.2346687 916.016004,49.44 915.136,49.44 C914.197329,49.44 913.43467,49.2346687 912.848,48.824 C912.26133,48.4133313 911.806668,47.6946718 911.484,46.668 C911.161332,45.6413282 910.941334,44.2773418 910.824,42.576 C910.706666,40.8746582 910.648,38.7626793 910.648,36.24 L910.648,36.24 Z M919.536,-2.832 L919.536,17.76 L919.36,17.76 C918.538663,15.2959877 917.233342,13.5800048 915.444,12.612 C913.654658,11.6439952 911.645344,11.16 909.416,11.16 C907.245322,11.16 905.250676,11.5706626 903.432,12.392 C901.613324,13.2133374 900.07334,14.5626573 898.812,16.44 C897.55066,18.3173427 896.568004,20.7813181 895.864,23.832 C895.159996,26.8826819 894.808,30.6666441 894.808,35.184 C894.808,44.042711 895.863989,50.5546458 897.976,54.72 C900.088011,58.8853542 903.783974,60.968 909.064,60.968 C911.880014,60.968 914.138658,60.3813392 915.84,59.208 C917.541342,58.0346608 918.890662,56.1280132 919.888,53.488 L920.064,53.488 L920.064,60 L935.376,60 L935.376,-2.832 L919.536,-2.832 Z M959.224,50.584 C958.050661,50.584 957.112004,50.1146714 956.408,49.176 C955.703996,48.2373286 955.352,46.9760079 955.352,45.392 C955.352,43.8079921 955.586664,42.5320048 956.056,41.564 C956.525336,40.5959952 957.375994,39.8186696 958.608,39.232 C959.781339,38.7039974 960.851995,38.3666674 961.82,38.22 C962.788005,38.0733326 963.506664,37.6773366 963.976,37.032 L964.152,37.032 L964.152,42.752 C964.152,45.3920132 963.77067,47.3573269 963.008,48.648 C962.24533,49.9386731 960.984009,50.584 959.224,50.584 L959.224,50.584 Z M965.12,60 L980.432,60 C979.786663,58.7679938 979.376001,57.3013418 979.2,55.6 C979.023999,53.8986582 978.936,51.9333445 978.936,49.704 L978.936,26.472 C978.936,23.3626511 978.481338,20.8253432 977.572,18.86 C976.662662,16.8946568 975.372008,15.3400057 973.7,14.196 C972.027992,13.0519943 970.033345,12.2600022 967.716,11.82 C965.398655,11.3799978 962.861347,11.16 960.104,11.16 C958.285324,11.16 956.320011,11.3506648 954.208,11.732 C952.095989,12.1133352 950.130676,12.8759943 948.312,14.02 C946.493324,15.1640057 944.968006,16.7773229 943.736,18.86 C942.503994,20.9426771 941.888,23.7146494 941.888,27.176 L955.616,27.176 C955.674667,24.6533207 956.055996,22.9666709 956.76,22.116 C957.464004,21.2653291 958.578659,20.84 960.104,20.84 C962.80268,20.84 964.152,22.306652 964.152,25.24 C964.152,26.706674 963.800004,27.835996 963.096,28.628 C962.391996,29.420004 961.189342,30.0213313 959.488,30.432 L953.24,31.928 C950.717321,32.5146696 948.605342,33.2333291 946.904,34.084 C945.202658,34.9346709 943.853338,35.9613273 942.856,37.164 C941.858662,38.3666727 941.140002,39.7893251 940.7,41.432 C940.259998,43.0746749 940.04,45.0106555 940.04,47.24 C940.04,49.2933436 940.274664,51.1706582 940.744,52.872 C941.213336,54.5733418 941.975995,56.0399938 943.032,57.272 C944.088005,58.5040062 945.451992,59.4279969 947.124,60.044 C948.796008,60.6600031 950.834655,60.968 953.24,60.968 C955.704012,60.968 957.889324,60.4400053 959.796,59.384 C961.702676,58.3279947 963.095996,56.7440106 963.976,54.632 L964.152,54.632 C964.269334,55.6293383 964.386666,56.5679956 964.504,57.448 C964.621334,58.3280044 964.826665,59.1786626 965.12,60 L965.12,60 Z M987.208,63.784 L987.208,74.872 C988.55734,74.9893339 989.950659,75.077333 991.388,75.136 C992.825341,75.194667 994.394658,75.224 996.096,75.224 C998.208011,75.224 1000.08533,75.0186687 1001.728,74.608 C1003.37067,74.1973313 1004.82266,73.4640053 1006.084,72.408 C1007.34534,71.3519947 1008.43066,69.9293423 1009.34,68.14 C1010.24934,66.3506577 1011.056,64.0773471 1011.76,61.32 L1024.52,12.392 L1008.68,12.392 L1004.104,44.512 L1003.928,44.512 L999.088,12.392 L982.808,12.392 L995.304,57.272 C995.480001,57.9173366 995.641333,58.5333304 995.788,59.12 C995.934667,59.7066696 996.008,60.1759982 996.008,60.528 C996.008,60.7626678 995.920001,61.0853313 995.744,61.496 C995.567999,61.9066687 995.274669,62.3026648 994.864,62.684 C994.453331,63.0653352 993.91067,63.4026652 993.236,63.696 C992.56133,63.9893348 991.725338,64.136 990.728,64.136 C990.14133,64.136 989.55467,64.106667 988.968,64.048 C988.38133,63.989333 987.79467,63.9013339 987.208,63.784 L987.208,63.784 Z" id="Your-weather-today"></path>
        </g>
    </g>
</svg>